<?xml version="1.0" encoding="UTF-8"?>
<svg xmlns="http://www.w3.org/2000/svg" xmlns:xlink="http://www.w3.org/1999/xlink" width="841.89pt" height="595.276pt" viewBox="0 0 841.89 595.276" version="1.1">
<g id="surface1">
<path style=" stroke:none;fill-rule:nonzero;fill:rgb(8.999634%,10.998535%,14.099121%);fill-opacity:1;" d="M 0 595.277344 L 841.890625 595.277344 L 841.890625 0 L 0 0 Z M 0 595.277344 "/>
<path style=" stroke:none;fill-rule:evenodd;fill:rgb(100%,100%,100%);fill-opacity:1;" d="M 325.59375 285.375 L 325.289063 285.375 C 315.128906 285.292969 306.824219 293.460938 306.742188 303.617188 C 306.660156 313.777344 314.828125 322.082031 324.988281 322.164063 L 343.683594 322.164063 L 343.683594 303.769531 C 343.6875 293.847656 335.8125 285.710938 325.894531 285.382813 L 325.59375 285.378906 Z M 376.320313 269.023438 L 375.980469 269.023438 C 372.21875 269.015625 368.53125 270.050781 365.320313 272.011719 C 372.429688 280.9375 376.324219 292 376.386719 303.410156 L 376.386719 322.164063 L 396.417969 322.164063 L 396.417969 289.464844 C 396.417969 278.304688 387.472656 269.210938 376.320313 269.023438 M 375.980469 236.320313 C 405.035156 236.320313 428.644531 259.636719 429.113281 288.585938 L 429.121094 289.464844 L 429.121094 354.867188 L 163.410156 354.867188 L 163.410156 322.164063 L 223.503906 322.164063 L 223.503906 310.3125 C 223.503906 292.730469 212.875 284.148438 198.15625 284.148438 C 191.617188 284.148438 183.851563 285.78125 176.492188 289.054688 L 173.222656 263.300781 C 182.625 259.214844 193.660156 256.761719 202.65625 256.761719 C 240.261719 256.761719 256.203125 279.242188 256.203125 305.8125 L 256.203125 322.164063 L 277.605469 322.164063 C 275.34375 316.296875 274.183594 310.058594 274.191406 303.769531 C 274.191406 275.546875 297.066406 252.671875 325.289063 252.671875 C 329.132813 252.671875 332.886719 253.097656 336.488281 253.902344 C 346.558594 242.699219 360.914063 236.304688 375.980469 236.320313 M 478.175781 224.058594 L 478.175781 322.164063 L 674.390625 322.164063 L 674.390625 371.21875 L 641.6875 371.21875 L 641.6875 354.867188 L 445.472656 354.867188 L 445.472656 224.058594 "/>
<path style=" stroke:none;fill-rule:evenodd;fill:rgb(0%,59.999084%,100%);fill-opacity:1;" d="M 658.039063 252.671875 C 669.328125 252.671875 678.476563 261.824219 678.476563 273.109375 C 678.476563 284.402344 669.328125 293.550781 658.039063 293.550781 C 646.75 293.550781 637.601563 284.402344 637.601563 273.109375 C 637.601563 261.824219 646.75 252.671875 658.039063 252.671875 "/>
<path style=" stroke:none;fill-rule:evenodd;fill:rgb(0%,79.998779%,59.999084%);fill-opacity:1;" d="M 592.632813 252.671875 C 603.921875 252.671875 613.074219 261.824219 613.074219 273.109375 C 613.074219 284.402344 603.921875 293.550781 592.632813 293.550781 C 581.347656 293.550781 572.195313 284.402344 572.195313 273.109375 C 572.195313 261.824219 581.347656 252.671875 592.632813 252.671875 "/>
<path style=" stroke:none;fill-rule:evenodd;fill:rgb(0%,82.398987%,34.098816%);fill-opacity:1;" d="M 527.230469 252.671875 C 538.515625 252.671875 547.667969 261.824219 547.667969 273.109375 C 547.667969 284.402344 538.515625 293.550781 527.230469 293.550781 C 515.941406 293.550781 506.789063 284.402344 506.789063 273.109375 C 506.789063 261.824219 515.941406 252.671875 527.230469 252.671875 "/>
</g>
</svg>
